<svg width="18" height="18" viewBox="0 0 18 18" fill="none" xmlns="http://www.w3.org/2000/svg">
<g id="color_svg/Device">
<path id="Subtract" fill-rule="evenodd" clip-rule="evenodd" d="M5.90625 1.125C5.59559 1.125 5.34375 1.37684 5.34375 1.6875C5.34375 1.99816 5.59559 2.25 5.90625 2.25H12.0938C12.4044 2.25 12.6562 1.99816 12.6562 1.6875C12.6562 1.37684 12.4044 1.125 12.0938 1.125H5.90625ZM5.90625 15.75C5.59559 15.75 5.34375 16.0018 5.34375 16.3125C5.34375 16.6232 5.59559 16.875 5.90625 16.875L12.0938 16.875C12.4044 16.875 12.6562 16.6232 12.6562 16.3125C12.6562 16.0018 12.4044 15.75 12.0938 15.75L5.90625 15.75ZM3.375 7.875C3.375 6.29985 3.375 5.51228 3.68154 4.91065C3.95119 4.38145 4.38145 3.95119 4.91065 3.68154C5.51228 3.375 6.29985 3.375 7.875 3.375H10.125C11.7001 3.375 12.4877 3.375 13.0893 3.68154C13.6186 3.95119 14.0488 4.38145 14.3185 4.91065C14.625 5.51228 14.625 6.29985 14.625 7.875V10.125C14.625 11.7001 14.625 12.4877 14.3185 13.0893C14.0488 13.6186 13.6186 14.0488 13.0893 14.3185C12.4877 14.625 11.7001 14.625 10.125 14.625H7.875C6.29985 14.625 5.51228 14.625 4.91065 14.3185C4.38145 14.0488 3.95119 13.6186 3.68154 13.0893C3.375 12.4877 3.375 11.7001 3.375 10.125V7.875ZM9 5.625C9.31066 5.625 9.5625 5.87684 9.5625 6.1875V8.4375H10.6875C10.9982 8.4375 11.25 8.68934 11.25 9C11.25 9.31066 10.9982 9.5625 10.6875 9.5625H9C8.68934 9.5625 8.4375 9.31066 8.4375 9V8.99959V6.1875C8.4375 5.87684 8.68934 5.625 9 5.625Z" fill="white"/>
</g>
</svg>
